<svg xmlns="http://www.w3.org/2000/svg" version="1.1" xmlns:xlink="http://www.w3.org/1999/xlink" xmlns:svgjs="http://svgjs.dev/svgjs" width="100%" height="100%" viewBox="0 0 1000 600"><rect width="1000" height="600" x="0" y="0" fill="#222831"/><g><rect width="333.3333333333333" height="333.3333333333333" rx="13.333333333333334" ry="13.333333333333334" y="245.6180957208636" fill="#dfd0b8" transform="matrix(0.5595447506023257,0,0,0.5595447506023257,0,69.30821303993298)" x="223.39584350585938"/><path d="M440.6098804142024 384.72726480774395L440.6098804142024 384.72726480774395Q440.6098804142024 392.7861415476247 438.29157340683946 398.6095079589769Q435.9732663994765 404.4328743703291 432.35781142370803 408.93149392033104Q428.7699553408844 413.4577123632778 424.46452804149607 417.10076623199103Q420.1591007421077 420.7438201007042 416.2676568368913 424.33167618352786Q412.3762129316749 427.9195322663515 409.4231313865816 431.94897063629185Q406.4700498414883 435.97840900623225 405.5040885884204 441.19459977279894L405.5040885884204 441.19459977279894Q400.6466834301361 440.14584184089665 396.03766830835497 439.7042595537799Q391.42865318657385 439.2626772666631 386.7644402789031 439.2626772666631L386.7644402789031 439.2626772666631Q383.9493531985338 439.2626772666631 381.0790683322749 439.4006717313871Q378.2363823589608 439.5662650890559 375.4212952785915 440.0354462691175L375.4212952785915 440.0354462691175Q375.4212952785915 433.35651417647654 376.88403660466577 428.6923012688058Q378.3191790377952 424.02808836113513 380.55468936632377 420.44023227831144Q382.79019969485233 416.85237619548786 385.3568967387185 413.73370129272575Q387.9235937825846 410.64262528290845 390.15910411111315 407.0547692000848Q392.39461443964177 403.46691311726124 393.85735576571597 398.8578979954801Q395.3200970917902 394.24888287369896 395.3200970917902 387.5423518881133L395.3200970917902 387.5423518881133Q395.3200970917902 382.9885345522217 394.32653694577755 379.5938707200117Q393.36057569270963 376.1992068878016 391.7598399019114 373.82570209454906Q390.15910411111315 371.4521973012965 388.1719838190878 369.98945597522226Q386.18486352706236 368.526714649148 384.2529410209266 367.69874786080413Q382.293419621846 366.8707810724602 380.55468936632377 366.5947921430122Q378.81595911080154 366.29120432061944 377.6568056071201 366.29120432061944L377.6568056071201 366.29120432061944Q373.95855395251726 366.29120432061944 372.02663144638143 368.19552793381047Q370.06711004730084 370.0722526540566 370.06711004730084 372.03177405313727L370.06711004730084 372.03177405313727Q370.06711004730084 373.08053198503956 370.37069786969363 374.10169102399703Q370.6742856920864 375.1228500629545 371.3918569086511 375.8956190654088Q372.1094281252158 376.6683880678632 373.2685816288973 377.1651681408695Q374.4553340255236 377.66194821387586 376.2768609598802 377.66194821387586L376.2768609598802 377.66194821387586Q377.6568056071201 377.5515526420967 378.81595911080154 376.9719758902559L378.81595911080154 376.9719758902559Q379.89231593564864 376.4751958172496 380.9410738675509 375.37124009945774Q382.017430692398 374.26728438166583 382.5970074442388 372.2249663037508L382.5970074442388 372.2249663037508Q384.7221222009881 375.2332456347337 385.8536768117248 379.0694917540605Q386.95763252951673 382.87813898044254 386.95763252951673 386.9627751362725L386.95763252951673 386.9627751362725Q386.95763252951673 391.0474112921025 385.79847902583526 394.8284596255397Q384.63932552215374 398.6095079589769 382.10022737123245 401.6177872899598Q379.58872811325585 404.6260666209427 375.6696853150947 406.4199946623545Q371.7230436239887 408.21392270376634 366.28606171386366 408.21392270376634L366.28606171386366 408.21392270376634Q359.6071296212227 408.21392270376634 354.55653221232484 405.26084115867303Q349.50593480342695 402.3077596135797 346.1664687571065 397.781541170633Q342.827002710786 393.28292162063104 341.1710691340982 387.92873638934043Q339.5151355574104 382.60215005099457 339.5151355574104 377.85514046448947L339.5151355574104 377.85514046448947Q339.5151355574104 373.4669164862667 340.59149238225746 368.7751046856512Q341.64025031415974 364.0556939920909 343.9309584285779 359.55707444208895Q346.2216665429961 355.0308559991422 349.83712151876455 351.0290165221466Q353.48017538747774 346.99957815220625 358.53077279637563 343.93610103533376Q363.5813702052735 340.8726239184613 370.23270340496964 339.0786958770494Q376.88403660466577 337.2847678356376 385.21890227399444 337.2847678356376L385.21890227399444 337.2847678356376Q392.0082299384146 337.2847678356376 398.7975576028347 338.4439213393191Q405.5868852672548 339.6306737359454 411.7414383939446 342.03177742214274Q417.9235904135791 344.46048000128485 423.19497896603536 348.2415283347221Q428.4939664114364 352.0501755611041 432.35781142370803 357.3215641135604Q436.24925532892445 362.62055155896144 438.42956787156345 369.4650770092711Q440.6098804142024 376.28200356663604 440.6098804142024 384.72726480774395ZM368.9079565436194 466.80637242557066L368.9079565436194 466.80637242557066Q368.9079565436194 462.6389395909063 370.5086923344176 458.9130890433587Q372.1094281252158 455.1872384958111 374.86931741969556 452.37215141544175Q377.6568056071201 449.5570643350725 381.38265615466764 447.95632854427424Q385.1085067022153 446.355592753476 389.38633510865884 446.355592753476L389.38633510865884 446.355592753476Q393.6641635151024 446.355592753476 397.39001406265004 447.95632854427424Q401.11586461019766 449.5570643350725 403.9033527976222 452.37215141544175Q406.6632420921019 455.1872384958111 408.2639778829001 458.9130890433587Q409.86471367369836 462.6389395909063 409.86471367369836 466.80637242557066L409.86471367369836 466.80637242557066Q409.86471367369836 471.0842008320143 408.2639778829001 474.83765027250666Q406.6632420921019 478.5635008200543 403.9033527976222 481.323390114534Q401.11586461019766 484.0832794090137 397.39001406265004 485.68401519981194Q393.6641635151024 487.2847509906102 389.38633510865884 487.2847509906102L389.38633510865884 487.2847509906102Q385.1085067022153 487.2847509906102 381.38265615466764 485.68401519981194Q377.6568056071201 484.0832794090137 374.86931741969556 481.323390114534Q372.1094281252158 478.5635008200543 370.5086923344176 474.83765027250666Q368.9079565436194 471.0842008320143 368.9079565436194 466.80637242557066Z " fill="#222831" transform="matrix(0.5595447506023257,0,0,0.5595447506023257,0,69.30821303993298)"/><path d="M745.8175387568209 419.2326207844044L745.8175387568209 419.2326207844044Q745.8175387568209 433.3250936912372 742.6940761753764 443.45790143576625Q739.5952077874864 453.56611498674056 734.4796155281125 460.62464853693433Q729.3886174622933 467.65858789357344 722.8957503638572 471.9379775720881Q716.4274774589759 476.21736725060276 709.7132626185477 478.6030040254069Q703.0236419716741 480.9886408002111 696.6045574539021 481.7510608004062Q690.2100671296848 482.5380749941561 685.2912284187483 482.5380749941561L685.2912284187483 482.5380749941561Q676.9046084166018 482.5380749941561 670.9774077699234 481.9724085423984Q665.050207123245 481.4067420906407 661.1643245416053 481.4067420906407L661.1643245416053 481.4067420906407Q656.7619638953172 481.4067420906407 651.4004297003964 481.57890144552346Q646.0388955054757 481.7510608004062 640.062506471688 482.2675388650546L640.062506471688 482.2675388650546Q642.3989548593829 478.0373375736492 644.16973679532 472.79877434650194Q645.940518731257 467.58480531290934 647.2440109896552 461.8789524082231Q648.5475032480533 456.1730995035369 649.4574884095766 450.31968143752255Q650.3674735710998 444.4908575650629 650.9577342164122 439.03094659592347L650.9577342164122 439.03094659592347Q652.3350090554744 426.2419659474888 652.5071684103572 412.76434787952303L652.5071684103572 412.76434787952303Q652.3350090554744 399.36051239222127 651.2282703455137 387.60448787308326L651.2282703455137 387.60448787308326Q650.7117922808654 382.5872723879281 649.9739664742249 377.5208685156636Q649.2361406675844 372.4544646433991 648.2031845382878 367.92913302933755Q647.1702284089911 363.3792072217214 645.719170989265 359.7638607691831Q644.2927077630934 356.12392012309016 642.3989548593829 353.95963109027815L642.3989548593829 353.95963109027815Q648.7934451836002 354.99258721957483 654.5484864753957 355.33690592934033Q660.3035277671913 355.6812246391059 664.7058884134794 355.6812246391059L664.7058884134794 355.6812246391059Q667.5588148658226 355.6812246391059 670.239581963283 355.50906528422314Q672.9203490607433 355.33690592934033 675.7732755130864 355.1647465744576Q678.6262019654296 354.99258721957483 681.8726355146475 354.8204278646921Q685.1190690638656 354.64826850980927 689.1771110003881 354.64826850980927L689.1771110003881 354.64826850980927Q695.0551232599571 354.64826850980927 701.5971787455026 355.4844710906684Q708.1146400374934 356.29607947797297 714.3861593939373 358.7063104463318Q720.6576787503811 361.14113560824535 726.3635316550674 365.5434962545334Q732.0693845597536 369.9704510943762 736.3979626253777 377.12736141878867Q740.7019464974471 384.30886593675586 743.2597426271341 394.6384272297223Q745.8175387568209 404.96798852268876 745.8175387568209 419.2326207844044ZM703.5401200363225 417.3388678806939L703.5401200363225 417.3388678806939Q703.5401200363225 407.2306543297195 702.9252651974555 400.49184529573665Q702.3104103585883 393.7284420681991 701.1544832615183 389.6212117445672Q699.9985561644482 385.51398142093524 698.2523684220658 383.7923878721075Q696.5307748732381 382.07079432327976 694.292703259762 382.07079432327976L694.292703259762 382.07079432327976Q692.3005735818327 382.07079432327976 690.7019510007784 384.0875181947637Q689.1033284197241 386.1288362598023 687.9719955162087 390.62957368030914Q686.8406626126933 395.13031110081596 686.250401967381 402.164250457455Q685.635547128514 409.2227840076488 685.635547128514 419.2326207844044L685.635547128514 419.2326207844044Q685.635547128514 429.783529819363 686.2012135802715 436.84206336955674Q686.7668800320293 443.87600272619585 687.8490245484353 448.1307982111558Q688.9311690648412 452.3609995025611 690.5297916458957 454.13178143849825Q692.12841422695 455.9025633744354 694.292703259762 455.9025633744354L694.292703259762 455.9025633744354Q698.5229045511674 455.9025633744354 701.0315122937449 446.65514659787493Q703.5401200363225 437.40772982131443 703.5401200363225 417.3388678806939ZM828.8229420038729 400.12293239241643L828.8229420038729 400.12293239241643Q828.8229420038729 406.6157994908525 826.9537832937172 412.76434787952303Q825.109218777116 418.88830207463883 820.4363220017264 423.65957562424717Q815.7634252263368 428.4062549803008 807.8440949017291 431.2591814326439Q799.9493587706762 434.11210788498704 787.7506387675539 434.11210788498704L787.7506387675539 434.11210788498704Q788.0949574773194 438.3423091763924 789.521420703491 441.1952356287355Q790.9478839296626 444.0481620810786 792.9400136075918 445.79434982346106Q794.9321432855211 447.5159433722888 797.1702148989971 448.3767401467027Q799.4328807060278 449.23753692111654 801.3266336097383 449.58185563088205Q803.220386513449 449.9261743406476 804.5238787718471 449.9261743406476Q805.8273710302452 449.9261743406476 805.8273710302452 449.9261743406476L805.8273710302452 449.9261743406476Q811.1889052251659 449.33591369533525 815.4191065165712 447.17162466252324L815.4191065165712 447.17162466252324Q817.2390768396177 446.3108278881094 818.9606703884455 444.95814724260185Q820.6822639372732 443.630060790649 822.1087271634448 441.7609020804932Q823.5351903896163 439.91633756389206 824.4451755511395 437.53070078908786Q825.3551607126628 435.14506401428366 825.5273200675456 432.04619562639374L825.5273200675456 432.04619562639374Q827.7899858745762 437.6536717568613 828.6999710360996 442.547916274243Q829.5853620040681 447.4421607916247 829.5853620040681 451.67236208303007L829.5853620040681 451.67236208303007Q829.5853620040681 459.44412724630956 826.7816239388344 465.986182731855Q823.9778858736006 472.50364402384577 819.0590471626641 477.25032337989944Q814.1156142581731 482.0215969295077 807.3276168370808 484.6531756398587Q800.5396194159886 487.2847543502097 792.5956948978262 487.2847543502097L792.5956948978262 487.2847543502097Q784.799335540992 487.2847543502097 777.5932368294702 484.60398725274933Q770.3625439243937 481.923220155289 764.8042561810355 476.0943962828294Q759.2213742441227 470.2655724103697 755.876563920686 460.9197788595905Q752.5563477908038 451.5739853088113 752.5563477908038 438.2685265957283L752.5563477908038 438.2685265957283Q752.5563477908038 423.8317349791299 756.7127665015452 412.66597110530427Q760.8691852122864 401.5248014250333 767.8539361818162 393.9497898101912Q774.8632813449004 386.3747781953491 784.0615097343516 382.4643014201547Q793.2843323173573 378.52923045140557 803.3925458683317 378.52923045140557L803.3925458683317 378.52923045140557Q808.4097613534868 378.52923045140557 813.033469741767 379.63596916136623Q817.6571781300473 380.7673020648816 821.1741478083668 383.34969238812323Q824.6665232931317 385.95667690491956 826.732435551725 390.06390722855144Q828.8229420038729 394.1711375521834 828.8229420038729 400.12293239241643ZM787.4063200577883 419.84747562327146L787.4063200577883 419.84747562327146Q789.8165510261472 419.7736930426074 793.0137961882558 418.86370788108417Q796.2110413503646 417.9537227195609 799.0639678027077 416.3059117513972Q801.9168942550507 414.6581007832335 803.8844297394253 412.24786981487466Q805.8273710302452 409.81304465296114 805.8273710302452 406.7141762650712L805.8273710302452 406.7141762650712Q805.8273710302452 404.72204658714196 804.4255019976283 403.51693110296253Q803.0482271585661 402.28722142522844 800.8839381257541 402.28722142522844L800.8839381257541 402.28722142522844Q797.8588523185283 402.28722142522844 795.4978097372788 404.0334091676109Q793.1121729624746 405.75500271643864 791.4151736072015 408.33739303968025Q789.7427684454831 410.9443775564765 788.7098123161865 414.0432459443665Q787.6522619933352 417.16670852581115 787.4063200577883 419.84747562327146ZM907.7703033144023 401.9429027154629L907.7703033144023 401.9429027154629Q907.7703033144023 405.4106840066731 906.3684342817855 408.16523368479744Q904.9911594427233 410.9443775564765 902.6547110550285 412.8873188472964Q900.3182626673338 414.8302601381163 897.2193942794438 415.91240465452233Q894.0959316979992 416.9945491709283 890.6527446003437 416.9945491709283L890.6527446003437 416.9945491709283Q886.6684852444852 416.9945491709283 883.8647471792515 416.0353756222957Q881.036414920463 415.1007962672178 879.0934736296431 413.5759562668275Q877.1505323388233 412.0757104599919 876.0191994353079 410.2065517498361Q874.9124607253472 408.33739303968025 874.2484174993707 406.6157994908525Q873.608968466949 404.89420594202477 873.4368091120663 403.4185543287438Q873.2646497571834 401.9429027154629 873.2646497571834 401.1804827152678L873.2646497571834 401.1804827152678Q874.0516639509333 402.631540134994 875.2567794351128 402.97585884475956Q876.4618949192921 403.3447717480798 877.1505323388233 403.3447717480798L877.1505323388233 403.3447717480798Q879.1426620167525 403.3447717480798 880.0034587911664 402.28722142522844Q880.8642555655803 401.25426529593176 880.8642555655803 400.12293239241643L880.8642555655803 400.12293239241643Q880.8642555655803 399.4342949728853 880.5199368558146 398.57349819847144Q880.1756181460491 397.71270142405757 879.3148213716353 396.9748756174171Q878.4540245972214 396.2370498107766 877.0767497581592 395.7205717461283Q875.6748807255424 395.20409368148 873.608968466949 395.20409368148L873.608968466949 395.20409368148Q872.3054762085509 395.20409368148 870.8298245952699 395.7205717461283Q869.3787671755438 396.2370498107766 868.198245884919 397.3191943271827Q867.0423187878489 398.4013388435887 866.255304594099 399.999961424643Q865.4682904003492 401.5985840056974 865.4682904003492 403.68909045784534L865.4682904003492 403.68909045784534Q865.4682904003492 407.5749730394851 867.4604200782785 410.2557401369454Q869.4525497562078 412.9365072344058 872.6989833054258 414.9532311058897Q875.9454168546438 416.9945491709283 880.0526471782757 418.7161427197561Q884.1598775019077 420.4623304621385 888.4884555675317 422.30689497873965Q892.792439439601 424.1760536888955 896.8996697632329 426.46331368948097Q901.0069000868648 428.75057369006635 904.2533336360829 432.04619562639374Q907.4997671853009 435.31722336916647 909.4918968632302 439.91633756389206Q911.4840265411594 444.4908575650629 911.4840265411594 450.8115653086162L911.4840265411594 450.8115653086162Q911.4840265411594 458.8538666009972 908.1884046048319 465.32213950587857Q904.9173768620593 471.8150066043147 899.4082775058105 476.4387149925949Q893.9237723431164 481.06242338087515 886.6684852444852 483.52184273634333Q879.3886039522993 485.9812620918116 871.3708968534729 485.9812620918116L871.3708968534729 485.9812620918116Q864.017232980623 485.9812620918116 857.4505833015229 484.013726607437Q850.8593394288681 482.0215969295077 845.9405007179316 478.4800330576335Q841.0216620069953 474.9138749922046 838.1195471675428 470.09341305548696Q835.2174323280904 465.2483569252146 835.2174323280904 459.61628660119237L835.2174323280904 459.61628660119237Q835.2174323280904 455.38608530978706 836.5947071671525 452.23802853478776Q837.9719820062146 449.06537756623374 840.4559955552376 446.99946530764043Q842.9154149107057 444.93355304904713 846.2356310405878 443.87600272619585Q849.5804413640246 442.84304659689917 853.4663239456644 442.84304659689917L853.4663239456644 442.84304659689917Q856.3192503980075 442.84304659689917 859.1721768503506 443.45790143576625Q862.0251033026938 444.0481620810786 864.5337110452714 445.2778717588127Q867.0423187878489 446.4829872429921 869.0344484657782 448.20458079181986Q871.0019839501527 449.9261743406476 872.2316936278868 452.1888401476784L872.2316936278868 452.1888401476784Q871.5430562083557 452.01668079279557 870.8790129823793 451.91830401857686Q870.2395639499575 451.8445214379128 869.5509265304265 451.8445214379128L869.5509265304265 451.8445214379128Q867.6325794331613 451.8445214379128 866.5504349167552 452.8282891801001Q865.4682904003492 453.8366511158421 865.4682904003492 456.0747227293181L865.4682904003492 456.0747227293181Q865.4682904003492 458.50954789123165 867.4604200782785 460.1327646658407Q869.4525497562078 461.7805756340044 871.8873749181213 461.7805756340044L871.8873749181213 461.7805756340044Q873.2646497571834 461.7805756340044 874.4697652413629 461.1657207951373Q875.6748807255424 460.57546014982495 876.5356774999561 459.567098214083Q877.4210684679247 458.5833304718957 877.8883581454637 457.3782149877163Q878.3556478230026 456.1730995035369 878.3556478230026 454.8696072451387L878.3556478230026 454.8696072451387Q878.3556478230026 452.606941438108 876.8554020161671 450.02455111486637Q875.3305620157768 447.4421607916247 872.5760123376524 445.6959730492423L872.5760123376524 445.6959730492423Q867.116101368513 442.32656853225086 862.2710452382406 439.91633756389206Q857.4505833015229 437.4815124019785 853.3679471714456 435.31722336916647Q849.3099052349231 433.15293433635446 846.063471685705 431.0132394970971Q842.8170381364871 428.8489504642851 840.578966523011 425.9468356248326Q838.3408949095349 423.04472078538015 837.1111852318008 419.10964981663096Q835.9060697476214 415.17457884788183 835.9060697476214 409.56710271741434L835.9060697476214 409.56710271741434Q835.9060697476214 402.9020762640955 838.5376484579724 397.24541174651864Q841.193821361878 391.56415303538705 846.1126600728144 387.43232851820045Q851.0314987837509 383.2759098074592 858.213003301718 380.89027303265505Q865.3945078196853 378.52923045140557 874.4697652413629 378.52923045140557L874.4697652413629 378.52923045140557Q883.7171820179233 378.52923045140557 890.087078148586 380.6689252906629Q896.4323800856939 382.8332143234749 900.3674510544431 386.20261884046636Q904.3025220231923 389.5966175510125 906.02411557202 393.7284420681991Q907.7703033144023 397.8848607789404 907.7703033144023 401.9429027154629ZM957.7457046175164 480.2016266064612L957.7457046175164 480.2016266064612Q956.2700530042355 480.10324983224257 954.2779233263062 479.93109047735976L954.2779233263062 479.93109047735976Q952.5563297774785 479.8573078966957 950.2198813897837 479.75893112247695Q947.8834330020889 479.68514854181296 944.858347194863 479.68514854181296L944.858347194863 479.68514854181296Q939.2262768708408 479.68514854181296 931.8726129979909 480.1524382193519Q924.5435433186956 480.64432209044554 915.9847639616662 481.923220155289L915.9847639616662 481.923220155289Q917.6079807362753 478.6521924125163 918.7393136397907 473.68416531447053Q919.8706465433061 468.69154402287006 920.6084723499464 463.0348795052932Q921.346298156587 457.3782149877163 921.7152110599072 451.5739853088113Q922.1087181567821 445.79434982346106 922.2808775116648 440.9492936931887Q922.4530368665476 436.1042375629163 922.5022252536569 432.73483304592486Q922.5514136407663 429.3654285289334 922.5514136407663 428.50463175451955L922.5514136407663 428.50463175451955Q922.3792542858836 417.2650853000298 921.7643994470166 407.4765962652664L921.7643994470166 407.4765962652664Q921.5184575114697 403.3447717480798 921.1249504145948 399.08997626311975Q920.7314433177198 394.85977497171444 920.2149652530716 391.0968633578481Q919.6984871884232 387.33395174398174 919.0344439624469 384.3580543238652Q918.3949949300251 381.3821569037487 917.5341981556112 379.63596916136623L917.5341981556112 379.63596916136623Q924.5435433186956 380.84108464554566 930.4953381589287 381.28378012952993Q936.4717271927163 381.72647561351425 941.3167833229888 381.72647561351425L941.3167833229888 381.72647561351425Q944.4156517108787 381.72647561351425 946.8750710663469 381.5789104521861Q949.3590846153697 381.45593948441274 951.0806781641976 381.28378012952993L951.0806781641976 381.28378012952993Q953.1465904227908 381.1116207746472 954.7206188102905 380.84108464554566L954.7206188102905 380.84108464554566Q953.1465904227908 388.6374440023799 952.1628226806035 399.6064543277681Q951.1544607448616 410.60005884671097 951.1544607448616 423.1430975595988L951.1544607448616 423.1430975595988Q951.1544607448616 430.30000788401134 951.5233736481819 437.6536717568613Q951.8676923579474 445.0073356297112 952.6301123581425 452.31181111545175Q953.4171265518924 459.61628660119237 954.6714304231812 466.67482015138614Q955.9257342944699 473.7087595080252 957.7457046175164 480.2016266064612ZM918.0506762202594 356.5666156070745L918.0506762202594 356.5666156070745Q918.0506762202594 352.58235625121597 919.5509220270951 349.06538657289644Q921.0757620274854 345.5730110881316 923.7073407378364 342.9414323777806Q926.3389194481874 340.3098536674296 929.9050775136163 338.7850136670393Q933.4466413854905 337.2847678602037 937.4063065477943 337.2847678602037L937.4063065477943 337.2847678602037Q941.3905659036528 337.2847678602037 944.9075355819723 338.7850136670393Q948.3999110667371 340.3098536674296 951.0314897770882 342.9414323777806Q953.6630684874392 345.5730110881316 955.1879084878294 349.06538657289644Q956.6881542946651 352.58235625121597 956.6881542946651 356.5666156070745L956.6881542946651 356.5666156070745Q956.6881542946651 360.5262807693783 955.1879084878294 364.06784464125246Q953.6630684874392 367.6340027066814 951.0314897770882 370.26558141703237Q948.3999110667371 372.89716012738336 944.9075355819723 374.42200012777363Q941.3905659036528 375.92224593460924 937.4063065477943 375.92224593460924L937.4063065477943 375.92224593460924Q933.4466413854905 375.92224593460924 929.9050775136163 374.42200012777363Q926.3389194481874 372.89716012738336 923.7073407378364 370.26558141703237Q921.0757620274854 367.6340027066814 919.5509220270951 364.06784464125246Q918.0506762202594 360.5262807693783 918.0506762202594 356.5666156070745ZM1053.0973930290188 481.7510608004062L1053.0973930290188 481.7510608004062Q1051.1298575446442 481.57890144552346 1048.6212498020668 481.4067420906407L1048.6212498020668 481.4067420906407Q1046.4569607692547 481.2345827357579 1043.5548459298022 481.16080015509385Q1040.6527310903498 481.06242338087515 1037.1849497991395 481.06242338087515L1037.1849497991395 481.06242338087515Q1032.2661110882032 481.06242338087515 1026.7324175383997 481.4067420906407Q1021.1987239885962 481.7510608004062 1015.7634072130113 482.71023434903884L1015.7634072130113 482.71023434903884Q1016.2798852776598 481.6772782197422 1016.870145922972 478.3816562834148Q1017.485000761839 475.1106285406421 1018.0506672135969 471.1263691847836Q1018.6163336653545 467.1421098289251 1019.0836233428935 463.2562272472853Q1019.5509130204324 459.3703446656456 1019.8214491495339 457.2060556328335L1019.8214491495339 457.2060556328335Q1018.4441743104717 463.6743285377149 1015.9601607614488 469.0112685390809Q1013.5007414059808 474.3236143468922 1010.229713663208 478.0865259607586Q1006.9340917268805 481.849437574625 1002.876049790358 483.9153498332182Q998.8180078538355 485.9812620918116 994.3172704333286 485.9812620918116L994.3172704333286 485.9812620918116Q992.2267639811807 485.9812620918116 989.2016781739547 485.7353201562647Q986.1765923667289 485.4647840271632 982.757999462628 484.013726607437Q979.3640007520819 482.5380749941561 975.9454078479812 479.4638007998208Q972.5268149438803 476.38952660548557 969.7968594593106 470.80664466857274Q967.0669039747409 465.2483569252146 965.3944988130226 456.6895775681852Q963.6974994577495 448.1307982111558 963.6974994577495 435.75991885315074L963.6974994577495 435.75991885315074Q963.6974994577495 425.3811691730749 965.2223394581397 417.21589691292047Q966.7225852649754 409.05062465276603 969.2803813946623 402.80369948987675Q971.8381775243492 396.5813685205422 975.25677042845 392.22819626136345Q978.6507691389961 387.85042980863005 982.4136807528625 385.09588013050563Q986.1765923667289 382.3167362588266 990.1116633354779 381.0624323875378Q994.0467343042271 379.80812851624904 997.6866749503201 379.80812851624904L997.6866749503201 379.80812851624904Q1001.7447168868426 379.80812851624904 1005.04033882317 381.16080916175656Q1008.3113665659428 382.48889561370936 1010.992133663403 384.60399625941204Q1013.6729007608635 386.7436910986694 1015.6650304387927 389.4490523896844Q1017.6571601167219 392.1790078742541 1019.1328117300029 394.85977497171444L1019.1328117300029 394.85977497171444Q1018.9606523751202 390.875515615856 1018.7884930202373 386.20261884046636Q1018.6163336653545 381.55431625863145 1018.345797536253 376.7830427090231Q1018.0998556007062 372.0363633529695 1017.7063485038312 367.4126549646893Q1017.3128414069563 362.788946576409 1016.8455517294174 358.80468722055053Q1016.3536678583239 354.8204278646921 1015.7634072130113 351.79534205746614Q1015.1485523741444 348.77025625024027 1014.3615381803945 347.2208220562953L1014.3615381803945 347.2208220562953Q1021.2971007628148 348.4259375404747 1027.248895603048 348.868633024459Q1033.2252846368356 349.2867343148886 1038.070340767108 349.2867343148886L1038.070340767108 349.2867343148886Q1041.169209154998 349.2867343148886 1043.6778168975757 349.16376334711515Q1046.186424640153 349.0407923793417 1047.9080181889808 348.868633024459L1047.9080181889808 348.868633024459Q1049.9985246411288 348.6964736695762 1051.5479588350738 348.4259375404747L1051.5479588350738 348.4259375404747Q1050.5887852864412 352.7545156060987 1049.826365286246 359.7146723820738Q1049.0393510924964 366.6748291580488 1048.4736846407386 375.4057678699609Q1047.9080181889808 384.13670658187306 1047.6128878663246 394.121949165074Q1047.3177575436684 404.10719174827494 1047.3177575436684 414.48594142835077L1047.3177575436684 414.48594142835077Q1047.3177575436684 424.0776769146768 1047.6128878663246 433.59562982033873Q1047.9080181889808 443.1135827260007 1048.6212498020668 451.8937098250222Q1049.3098872215978 460.649242730489 1050.4166259315584 468.3226311195498Q1051.5479588350738 475.97142531505597 1053.0973930290188 481.7510608004062ZM1017.5587833425031 432.21835498127655L1017.5587833425031 432.21835498127655L1017.5587833425031 418.19966465510777Q1017.5587833425031 415.86321626741295 1017.3128414069563 413.4529852990541Q1017.0423052778549 411.01816013714057 1016.1323201163316 409.05062465276603Q1015.246929148363 407.0584949748368 1013.5007414059808 405.80419110354796Q1011.7791478571529 404.5498872322592 1008.8278446305911 404.5498872322592L1008.8278446305911 404.5498872322592Q1006.7619323719978 404.5498872322592 1005.2862807587169 406.1976982004229Q1003.8106291454358 407.8209149750319 1002.876049790358 410.4278994918282Q1001.9168762417254 413.0102898150698 1001.326615596413 416.2075349771785Q1000.711760757546 419.40478013928714 1000.4412246284445 422.57743110784116Q1000.1952826928975 425.72548788284047 1000.0969059186789 428.45544336741017Q1000.0231233380148 431.18539885197987 1000.0231233380148 432.73483304592486L1000.0231233380148 432.73483304592486Q1000.0231233380148 435.0712814336197 1000.244471080007 438.48987433772044Q1000.4412246284445 441.90846724182126 1001.2282388221943 445.05652401682056Q1002.0152530159442 448.20458079181986 1003.6138755969985 450.4672465988506Q1005.2124981780528 452.7053182123267 1007.9670478561773 452.7053182123267L1007.9670478561773 452.7053182123267Q1011.0905104376218 452.7053182123267 1012.9842633413323 450.5410291795147Q1014.8780162450428 448.3767401467027 1015.8863781807847 445.179494984594Q1016.870145922972 441.9822498224853 1017.2144646327376 438.48987433772044Q1017.5587833425031 434.9729046594009 1017.5587833425031 432.21835498127655ZM1134.553362082126 400.12293239241643L1134.553362082126 400.12293239241643Q1134.553362082126 406.6157994908525 1132.68420337197 412.76434787952303Q1130.8396388553688 418.88830207463883 1126.1667420799793 423.65957562424717Q1121.4938453045897 428.4062549803008 1113.5991091735366 431.2591814326439Q1105.6797788489291 434.11210788498704 1093.4810588458067 434.11210788498704L1093.4810588458067 434.11210788498704Q1093.8253775555722 438.3423091763924 1095.2518407817438 441.1952356287355Q1096.6783040079154 444.0481620810786 1098.6704336858447 445.79434982346106Q1100.662563363774 447.5159433722888 1102.90063497725 448.3767401467027Q1105.1633007842806 449.23753692111654 1107.0570536879914 449.58185563088205Q1108.9508065917018 449.9261743406476 1110.2542988501 449.9261743406476Q1111.5577911084981 449.9261743406476 1111.5577911084981 449.9261743406476L1111.5577911084981 449.9261743406476Q1116.9193253034186 449.33591369533525 1121.149526594824 447.17162466252324L1121.149526594824 447.17162466252324Q1122.9694969178706 446.3108278881094 1124.6910904666984 444.95814724260185Q1126.4372782090807 443.630060790649 1127.8637414352525 441.7609020804932Q1129.2902046614238 439.91633756389206 1130.200189822947 437.53070078908786Q1131.0855807909156 435.14506401428366 1131.2577401457984 432.04619562639374L1131.2577401457984 432.04619562639374Q1133.5204059528292 437.6536717568613 1134.4303911143525 442.547916274243Q1135.3403762758758 447.4421607916247 1135.3403762758758 451.67236208303007L1135.3403762758758 451.67236208303007Q1135.3403762758758 459.44412724630956 1132.5120440170872 465.986182731855Q1129.7083059518536 472.50364402384577 1124.789467240917 477.25032337989944Q1119.8460343364259 482.0215969295077 1113.0580369153338 484.6531756398587Q1106.2700394942415 487.2847543502097 1098.3261149760792 487.2847543502097L1098.3261149760792 487.2847543502097Q1090.5543498127995 487.2847543502097 1083.323656907723 484.60398725274933Q1076.1175581962011 481.923220155289 1070.5346762592885 476.0943962828294Q1064.9517943223755 470.2655724103697 1061.6315781924934 460.9197788595905Q1058.2867678690568 451.5739853088113 1058.2867678690568 438.2685265957283L1058.2867678690568 438.2685265957283Q1058.2867678690568 423.8317349791299 1062.443186579798 412.66597110530427Q1066.5996052905393 401.5248014250333 1073.6089504536237 393.9497898101912Q1080.5937014231533 386.3747781953491 1089.8165240061592 382.4643014201547Q1099.0147523956102 378.52923045140557 1109.1229659465846 378.52923045140557L1109.1229659465846 378.52923045140557Q1114.1401814317396 378.52923045140557 1118.7638898200198 379.63596916136623Q1123.412192401855 380.7673020648816 1126.9045678866196 383.34969238812323Q1130.3969433713846 385.95667690491956 1132.4874498235326 390.06390722855144Q1134.553362082126 394.1711375521834 1134.553362082126 400.12293239241643ZM1093.1367401360412 419.84747562327146L1093.1367401360412 419.84747562327146Q1095.5715652979547 419.7736930426074 1098.7688104600634 418.86370788108417Q1101.966055622172 417.9537227195609 1104.8189820745151 416.3059117513972Q1107.6719085268583 414.6581007832335 1109.614849817678 412.24786981487466Q1111.5577911084981 409.81304465296114 1111.5577911084981 406.7141762650712L1111.5577911084981 406.7141762650712Q1111.5577911084981 404.72204658714196 1110.1805162694359 403.51693110296253Q1108.778647236819 402.28722142522844 1106.6389523975618 402.28722142522844L1106.6389523975618 402.28722142522844Q1103.589272396781 402.28722142522844 1101.2282298155317 404.0334091676109Q1098.8425930407275 405.75500271643864 1097.170187879009 408.33739303968025Q1095.473188523736 410.9443775564765 1094.4402323944394 414.0432459443665Q1093.4072762651426 417.16670852581115 1093.1367401360412 419.84747562327146ZM1188.9311240315278 402.1150620703457L1188.9311240315278 402.1150620703457Q1186.2503569340674 402.1150620703457 1184.1106620948103 403.63990207073596Q1181.9463730619982 405.14014787757156 1180.2493737067252 407.87010336214126Q1178.5769685450068 410.60005884671097 1177.322664673718 414.4121588476867Q1176.0683608024292 418.19966465510777 1175.2813466086793 422.7987788498333L1175.2813466086793 422.7987788498333Q1175.2813466086793 430.1278485291285 1175.625665318445 437.6536717568613Q1175.9699840282105 445.179494984594 1176.7569982219602 452.53315885744394Q1177.5194182221553 459.88682273029383 1178.7737220934441 466.8961678933782Q1180.028025964733 473.88091886290795 1181.8479962877796 480.2016266064612L1181.8479962877796 480.2016266064612Q1180.4707214487173 480.10324983224257 1178.650751125671 479.93109047735976L1178.650751125671 479.93109047735976Q1177.1013169317257 479.8573078966957 1174.8878395118045 479.75893112247695Q1172.674362091883 479.68514854181296 1169.82143563954 479.68514854181296L1169.82143563954 479.68514854181296Q1164.4599014446194 479.68514854181296 1157.4259620879802 480.1524382193519Q1150.3674285377863 480.64432209044554 1141.8086491807571 481.923220155289L1141.8086491807571 481.923220155289Q1142.8661995036084 477.07816402501663 1143.6286195038035 470.09341305548696Q1144.4156336975534 463.0840678924025 1144.9321117622017 454.8696072451387Q1145.44858982685 446.65514659787493 1145.743720149506 437.7028601439706Q1146.063444665717 428.75057369006635 1146.063444665717 420.0196349781542L1146.063444665717 420.0196349781542Q1146.063444665717 413.52676787971814 1145.8912853108343 407.3044369103836Q1145.7191259559515 401.082105941049 1145.3994014397406 395.54841239124556Q1145.1042711170844 390.01471884144206 1144.5877930524362 385.3418220660525Q1144.0713149877877 380.6689252906629 1143.3826775682567 377.2995207736715L1143.3826775682567 377.2995207736715Q1150.3674285377863 378.52923045140557 1156.1224698295819 378.9965201289445Q1161.8775111213777 379.4638098064835 1166.4520311225485 379.4638098064835L1166.4520311225485 379.4638098064835Q1169.4033343491103 379.4638098064835 1171.6414059625863 379.34083883871006Q1173.904071769617 379.21786787093663 1175.5272885442262 379.0457085160539L1175.5272885442262 379.0457085160539Q1177.3472588672726 378.77517238695236 1178.8229104805537 378.52923045140557L1178.8229104805537 378.52923045140557Q1177.7899543512567 382.8332143234749 1177.2734762866085 388.12096593773157L1177.2734762866085 388.12096593773157Q1181.7742137071155 382.66105496859217 1187.0865595149266 380.0786646453505Q1192.398905322738 377.4716801285542 1197.0718020981276 377.4716801285542L1197.0718020981276 377.4716801285542Q1204.8435672614073 377.4716801285542 1210.2051014563278 380.3000123873427Q1215.5666356512486 383.10375045257643 1218.862257587576 387.6290820666379Q1222.1332853303488 392.1790078742541 1223.6089369436295 397.9832375531591Q1225.0845885569106 403.7628730385094 1225.0845885569106 409.7392620722971L1225.0845885569106 409.7392620722971Q1225.0845885569106 415.5188975576474 1223.4367775887467 421.0525911074509Q1221.788966620583 426.58628465725434 1218.6900982326933 430.96405110998774Q1215.5666356512486 435.31722336916647 1210.9921156500777 437.9979904666268Q1206.4175956489069 440.67875756408716 1200.6133659700017 440.67875756408716L1200.6133659700017 440.67875756408716Q1195.5223679041828 440.67875756408716 1191.9316156451991 438.9571640152594Q1188.3408633862155 437.2355704664317 1186.0044149985206 434.4564265947526Q1183.667966610826 431.7018769166282 1182.58582209442 428.35706659319146Q1181.5036775780138 425.03685046330935 1181.5036775780138 421.741228526982L1181.5036775780138 421.741228526982Q1181.5036775780138 418.2980414293265 1182.487445320201 415.0024194929991Q1183.495807255943 411.73139175022635 1185.3895601596537 409.05062465276603L1185.3895601596537 409.05062465276603Q1186.0044149985206 410.9443775564765 1186.914400160044 411.9281452986638Q1187.8243853215672 412.9365072344058 1188.758964676645 413.3546085248354L1188.758964676645 413.3546085248354Q1189.8165149994966 413.8710865894837 1191.0216304836758 413.9694633637024L1191.0216304836758 413.9694633637024Q1194.2188756457845 413.9694633637024 1195.8174982268388 412.4938117504215Q1197.416120807893 411.01816013714057 1197.416120807893 409.05062465276603L1197.416120807893 409.05062465276603Q1197.416120807893 408.0914511041334 1197.0718020981276 406.886335619954Q1196.727483388362 405.6566259422199 1195.8174982268388 404.62366981292325Q1194.9075130653155 403.5907136836266 1193.259702097152 402.85288787698613Q1191.6118911289882 402.1150620703457 1188.9311240315278 402.1150620703457ZM1318.714683419585 481.7510608004062L1318.714683419585 481.7510608004062Q1317.0914666449762 481.57890144552346 1314.927177612164 481.4067420906407L1314.927177612164 481.4067420906407Q1313.1072072891175 481.2345827357579 1310.5494111594307 481.16080015509385Q1307.9916150297438 481.06242338087515 1304.9665292225177 481.06242338087515L1304.9665292225177 481.06242338087515Q1300.6625453504485 481.06242338087515 1295.4977647039655 481.4067420906407Q1290.3575782510366 481.7510608004062 1284.9222614754522 482.71023434903884L1284.9222614754522 482.71023434903884L1285.2665801852177 458.41117111701294Q1281.9709582488902 471.29852853966634 1275.6256563117822 478.3078737027507Q1269.2557601811195 485.29262467228045 1260.6969808240901 485.29262467228045L1260.6969808240901 485.29262467228045Q1258.0162137266298 485.29262467228045 1254.6468092096384 484.60398725274933Q1251.277404692647 483.9153498332182 1247.785029207882 481.9724085423984Q1244.2680595295626 480.02946725157847 1240.9478433996806 476.5616859603683Q1237.6276272697983 473.11849886271284 1235.020642753002 467.609399506464Q1232.4382524297605 462.12489434376994 1230.864224042261 454.303940793381Q1229.3147898483157 446.4829872429921 1229.3147898483157 435.75991885315074L1229.3147898483157 435.75991885315074Q1229.3147898483157 421.22475046233365 1232.2660930748777 410.8951891693672Q1235.1928021078847 400.5656278764007 1239.7919163026104 393.9989781973006Q1244.3664363037813 387.43232851820045 1249.9001298535848 384.4072427109746Q1255.433823403388 381.3821569037487 1260.6969808240901 381.3821569037487L1260.6969808240901 381.3821569037487Q1265.1977182445971 381.3821569037487 1268.8868472777995 382.63646077503745Q1272.551382117447 383.89076464632626 1275.40430856979 385.83370593714614Q1278.2572350221333 387.776647227966 1280.3231472807265 390.18687819632487Q1282.4136537328745 392.6217033582384 1283.7171459912724 395.03193432659725L1283.7171459912724 395.03193432659725Q1283.446609862171 392.1052252935901 1282.9301317975228 388.7604149701533Q1282.4136537328745 385.4401988402712 1281.7250163133433 381.898634968397L1281.7250163133433 381.898634968397Q1287.332492443811 383.0053736783577 1293.1367221227156 383.34969238812323Q1298.916357608066 383.6940110978888 1303.859790512557 383.6940110978888L1303.859790512557 383.6940110978888Q1309.737802772126 383.6940110978888 1313.3531492246645 383.448069162342L1313.3531492246645 383.448069162342Q1315.4436556768126 383.34969238812323 1317.1652492256403 383.1775330332405L1317.1652492256403 383.1775330332405Q1316.2060756770077 387.5061110988645 1315.4436556768126 392.8676452937852Q1314.6566414830627 398.2291794887059 1314.0909750313049 404.3285394902671Q1313.5253085795473 410.4278994918282 1313.2301782568911 417.1175201387017Q1312.9350479342347 423.8317349791299 1312.9350479342347 430.8410801422143L1312.9350479342347 430.8410801422143Q1312.9350479342347 443.87600272619585 1314.238540192633 457.03389627795076Q1315.5174382574764 470.16719563615095 1318.714683419585 481.7510608004062ZM1283.1760737330696 432.21835498127655L1283.1760737330696 432.21835498127655L1283.1760737330696 418.19966465510777Q1283.1760737330696 415.86321626741295 1282.9301317975228 413.4529852990541Q1282.6595956684214 411.01816013714057 1281.749610506898 409.05062465276603Q1280.8642195389295 407.0584949748368 1279.118031796547 405.80419110354796Q1277.3964382477193 404.5498872322592 1274.4451350211575 404.5498872322592L1274.4451350211575 404.5498872322592Q1271.3462666332675 404.5498872322592 1269.3049485682288 406.7141762650712Q1267.2882246967451 408.8784652978832 1266.0339208254563 412.61678271819494Q1264.7796169541675 416.37969433206126 1264.2877330830738 421.54447497854454Q1263.8204434055347 426.68466143147305 1263.8204434055347 432.73483304592486L1263.8204434055347 432.73483304592486Q1263.8204434055347 436.17802014358034 1264.2877330830738 439.74417820900925Q1264.7796169541675 443.28574208088344 1265.8863556641281 446.18785692033595Q1267.0176885676435 449.06537756623374 1268.911441471354 450.88534788928024Q1270.8297885686193 452.7053182123267 1273.5843382467435 452.7053182123267L1273.5843382467435 452.7053182123267Q1276.7078008281883 452.7053182123267 1278.6015537318988 450.5410291795147Q1280.4953066356093 448.3767401467027 1281.5036685713512 445.179494984594Q1282.4874363135386 441.9822498224853 1282.8317550233041 438.48987433772044Q1283.1760737330696 434.9729046594009 1283.1760737330696 432.21835498127655ZM1395.079654406873 375.57792722484373L1395.079654406873 375.57792722484373Q1394.391016987342 379.4638098064835 1394.071292471131 383.1775330332405Q1393.7761621484747 386.91585045355214 1393.7761621484747 390.8017330351919L1393.7761621484747 390.8017330351919Q1393.7761621484747 394.5154562619489 1394.071292471131 398.27836787581526Q1394.391016987342 402.04127948968164 1395.079654406873 405.8287852971026L1395.079654406873 405.8287852971026Q1390.923235696132 403.68909045784534 1385.6846724689844 402.631540134994Q1380.470703435392 401.5985840056974 1375.0107924662525 401.00832336038496L1375.0107924662525 401.00832336038496L1375.0107924662525 408.43576981389896Q1375.0107924662525 418.19966465510777 1375.355111176018 428.18490723830865Q1375.6994298857835 438.1701498215096 1376.4864440795334 447.5651317593981Q1377.2488640797287 456.935519503732 1378.5031679510173 465.32213950587857Q1379.757471822306 473.7087595080252 1381.5774421453525 480.2016266064612L1381.5774421453525 480.2016266064612Q1380.1017905320714 480.10324983224257 1378.134255047697 479.93109047735976L1378.134255047697 479.93109047735976Q1376.3880673053145 479.8573078966957 1374.0516189176199 479.75893112247695Q1371.7151705299252 479.68514854181296 1368.6900847226993 479.68514854181296L1368.6900847226993 479.68514854181296Q1363.0826085922317 479.68514854181296 1355.7289447193816 480.1524382193519Q1348.3752808465317 480.64432209044554 1339.8165014895023 481.923220155289L1339.8165014895023 481.923220155289Q1342.7678047160643 465.0761975703318 1344.0221085873532 446.87649433986707Q1345.276412458642 428.6767911094023 1345.276412458642 411.2886962662421L1345.276412458642 411.2886962662421L1345.276412458642 401.00832336038496Q1339.398400199073 401.42642465081457 1333.6433589072772 402.3364098123378Q1327.8883176154818 403.246394973861 1322.7973195496625 404.5498872322592L1322.7973195496625 404.5498872322592Q1323.141638259428 403.5907136836266 1323.3875801949748 402.04127948968164Q1323.6581163240762 400.49184529573665 1323.7810872918499 398.84403432757296Q1323.904058259623 397.19622335940926 1323.9532466467326 395.64678916546427Q1324.0024350338417 394.0727607779646 1324.0024350338417 393.039804648668L1324.0024350338417 393.039804648668Q1324.0024350338417 388.6374440023799 1323.6581163240762 384.30886593675586Q1323.3137976143107 379.9802878711318 1322.7973195496625 375.57792722484373L1322.7973195496625 375.57792722484373Q1326.929144066849 377.2995207736715 1332.6349969715352 378.3816652900775Q1338.3408498762215 379.4638098064835 1344.2188621357905 379.9802878711318L1344.2188621357905 379.9802878711318Q1343.7023840711422 372.4544646433991 1343.0137466516112 366.0599743191817Q1342.32510923208 359.6654839949644 1341.3659356834473 354.47610915492646L1341.3659356834473 354.47610915492646Q1348.3752808465317 355.6812246391059 1354.3516698803196 356.12392012309016Q1360.3034647205525 356.5666156070745 1365.148520850825 356.5666156070745L1365.148520850825 356.5666156070745Q1368.2719834322695 356.5666156070745 1370.7314027877378 356.4190504457464Q1373.1908221432059 356.29607947797297 1374.9370098855884 356.12392012309016L1374.9370098855884 356.12392012309016Q1377.0029221441819 355.9517607682074 1378.5523563381266 355.6812246391059L1378.5523563381266 355.6812246391059Q1377.6177769830488 359.8376433498472 1376.9537337570723 366.03538012562706Q1376.3142847246506 372.20852270785224 1375.6994298857835 379.80812851624904L1375.6994298857835 379.80812851624904Q1381.4052827904698 379.21786787093663 1386.4716866627346 378.16031754808535Q1391.538090534999 377.12736141878867 1395.079654406873 375.57792722484373ZM1473.2400015236526 400.12293239241643L1473.2400015236526 400.12293239241643Q1473.2400015236526 406.6157994908525 1471.370842813497 412.76434787952303Q1469.5262782968957 418.88830207463883 1464.853381521506 423.65957562424717Q1460.1804847461162 428.4062549803008 1452.2611544215088 431.2591814326439Q1444.3664182904558 434.11210788498704 1432.1676982873337 434.11210788498704L1432.1676982873337 434.11210788498704Q1432.5120169970992 438.3423091763924 1433.9384802232707 441.1952356287355Q1435.3649434494423 444.0481620810786 1437.3570731273717 445.79434982346106Q1439.3492028053008 447.5159433722888 1441.5872744187768 448.3767401467027Q1443.825346032253 449.23753692111654 1445.7436931295183 449.58185563088205Q1447.6374460332288 449.9261743406476 1448.9409382916267 449.9261743406476Q1450.2444305500248 449.9261743406476 1450.2444305500248 449.9261743406476L1450.2444305500248 449.9261743406476Q1455.6059647449456 449.33591369533525 1459.836166036351 447.17162466252324L1459.836166036351 447.17162466252324Q1461.6561363593974 446.3108278881094 1463.377729908225 444.95814724260185Q1465.0993234570528 443.630060790649 1466.5257866832244 441.7609020804932Q1467.952249909396 439.91633756389206 1468.8622350709193 437.53070078908786Q1469.7722202324426 435.14506401428366 1469.9443795873253 432.04619562639374L1469.9443795873253 432.04619562639374Q1472.2070453943559 437.6536717568613 1473.1170305558794 442.547916274243Q1474.0024215238477 447.4421607916247 1474.0024215238477 451.67236208303007L1474.0024215238477 451.67236208303007Q1474.0024215238477 459.44412724630956 1471.1986834586141 465.986182731855Q1468.3949453933803 472.50364402384577 1463.476106682444 477.25032337989944Q1458.5326737779528 482.0215969295077 1451.7446763568605 484.6531756398587Q1444.9566789357682 487.2847543502097 1437.0127544176057 487.2847543502097L1437.0127544176057 487.2847543502097Q1429.216395060772 487.2847543502097 1422.01029634925 484.60398725274933Q1414.7796034441735 481.923220155289 1409.1967215072605 476.0943962828294Q1403.6384337639024 470.2655724103697 1400.2936234404656 460.9197788595905Q1396.9734073105835 451.5739853088113 1396.9734073105835 438.2685265957283L1396.9734073105835 438.2685265957283Q1396.9734073105835 423.8317349791299 1401.1298260213248 412.66597110530427Q1405.286244732066 401.5248014250333 1412.270995701596 393.9497898101912Q1419.2803408646803 386.3747781953491 1428.4785692541313 382.4643014201547Q1437.7013918371372 378.52923045140557 1447.8096053881113 378.52923045140557L1447.8096053881113 378.52923045140557Q1452.8268208732666 378.52923045140557 1457.4505292615468 379.63596916136623Q1462.074237649827 380.7673020648816 1465.5912073281465 383.34969238812323Q1469.0835828129113 385.95667690491956 1471.1494950715048 390.06390722855144Q1473.2400015236526 394.1711375521834 1473.2400015236526 400.12293239241643ZM1431.8233795775682 419.84747562327146L1431.8233795775682 419.84747562327146Q1434.2336105459267 419.7736930426074 1437.4308557080356 418.86370788108417Q1440.6281008701444 417.9537227195609 1443.4810273224875 416.3059117513972Q1446.3339537748304 414.6581007832335 1448.301489259205 412.24786981487466Q1450.2444305500248 409.81304465296114 1450.2444305500248 406.7141762650712L1450.2444305500248 406.7141762650712Q1450.2444305500248 404.72204658714196 1448.8425615174078 403.51693110296253Q1447.4652866783458 402.28722142522844 1445.3009976455337 402.28722142522844L1445.3009976455337 402.28722142522844Q1442.2759118383078 402.28722142522844 1439.9148692570584 404.0334091676109Q1437.5292324822544 405.75500271643864 1435.8322331269812 408.33739303968025Q1434.1598279652628 410.9443775564765 1433.126871835966 414.0432459443665Q1432.069321513115 417.16670852581115 1431.8233795775682 419.84747562327146ZM1527.6177634730548 402.1150620703457L1527.6177634730548 402.1150620703457Q1524.9369963755944 402.1150620703457 1522.7727073427823 403.63990207073596Q1520.6084183099704 405.14014787757156 1518.936013148252 407.87010336214126Q1517.2390137929788 410.60005884671097 1515.98470992169 414.4121588476867Q1514.7304060504014 418.19966465510777 1513.967986050206 422.7987788498333L1513.967986050206 422.7987788498333Q1513.967986050206 430.1278485291285 1514.3123047599715 437.6536717568613Q1514.6566234697375 445.179494984594 1515.4190434699326 452.53315885744394Q1516.2060576636823 459.88682273029383 1517.460361534971 466.8961678933782Q1518.7146654062599 473.88091886290795 1520.5346357293065 480.2016266064612L1520.5346357293065 480.2016266064612Q1519.157360890244 480.10324983224257 1517.3373905671976 479.93109047735976L1517.3373905671976 479.93109047735976Q1515.763362179698 479.8573078966957 1513.5744789533314 479.75893112247695Q1511.3610015334098 479.68514854181296 1508.5080750810669 479.68514854181296L1508.5080750810669 479.68514854181296Q1503.1465408861463 479.68514854181296 1496.112601529507 480.1524382193519Q1489.0540679793132 480.64432209044554 1480.4952886222839 481.923220155289L1480.4952886222839 481.923220155289Q1481.5282447515806 477.07816402501663 1482.3152589453302 470.09341305548696Q1483.1022731390801 463.0840678924025 1483.6187512037286 454.8696072451387Q1484.1352292683769 446.65514659787493 1484.4303595910328 437.7028601439706Q1484.7254899136892 428.75057369006635 1484.7254899136892 420.0196349781542L1484.7254899136892 420.0196349781542Q1484.7254899136892 413.52676787971814 1484.5533305588065 407.3044369103836Q1484.3811712039237 401.082105941049 1484.0860408812673 395.54841239124556Q1483.7909105586114 390.01471884144206 1483.2744324939629 385.3418220660525Q1482.7579544293146 380.6689252906629 1482.0447228162288 377.2995207736715L1482.0447228162288 377.2995207736715Q1489.0540679793132 378.52923045140557 1494.8091092711088 378.9965201289445Q1500.5641505629044 379.4638098064835 1505.1386705640753 379.4638098064835L1505.1386705640753 379.4638098064835Q1508.089973790637 379.4638098064835 1510.3280454041133 379.34083883871006Q1512.5661170175892 379.21786787093663 1514.213927985753 379.0457085160539L1514.213927985753 379.0457085160539Q1516.0338983087995 378.77517238695236 1517.5095499220804 378.52923045140557L1517.5095499220804 378.52923045140557Q1516.4765937927837 382.8332143234749 1515.9601157281354 388.12096593773157L1515.9601157281354 388.12096593773157Q1520.4362589550874 382.66105496859217 1525.7731989564536 380.0786646453505Q1531.0855447642648 377.4716801285542 1535.7584415396545 377.4716801285542L1535.7584415396545 377.4716801285542Q1543.530206702934 377.4716801285542 1548.8917408978546 380.3000123873427Q1554.2532750927753 383.10375045257643 1557.548897029103 387.6290820666379Q1560.8199247718755 392.1790078742541 1562.2955763851564 397.9832375531591Q1563.7712279984376 403.7628730385094 1563.7712279984376 409.7392620722971L1563.7712279984376 409.7392620722971Q1563.7712279984376 415.5188975576474 1562.1234170302737 421.0525911074509Q1560.47560606211 426.58628465725434 1557.3521434806653 430.96405110998774Q1554.2532750927753 435.31722336916647 1549.6787550916047 437.9979904666268Q1545.079640896879 440.67875756408716 1539.3000054115287 440.67875756408716L1539.3000054115287 440.67875756408716Q1534.184413152155 440.67875756408716 1530.593660893171 438.9571640152594Q1527.0275028277424 437.2355704664317 1524.6910544400475 434.4564265947526Q1522.3546060523527 431.7018769166282 1521.2724615359466 428.35706659319146Q1520.190317019541 425.03685046330935 1520.190317019541 421.741228526982L1520.190317019541 421.741228526982Q1520.190317019541 418.2980414293265 1521.174084761728 415.0024194929991Q1522.1824466974701 411.73139175022635 1524.0761996011806 409.05062465276603L1524.0761996011806 409.05062465276603Q1524.6910544400475 410.9443775564765 1525.5764454080163 411.9281452986638Q1526.4864305695394 412.9365072344058 1527.445604118172 413.3546085248354L1527.445604118172 413.3546085248354Q1528.4785602474685 413.8710865894837 1529.6836757316478 413.9694633637024L1529.6836757316478 413.9694633637024Q1532.9055150873114 413.9694633637024 1534.5041376683657 412.4938117504215Q1536.10276024942 411.01816013714057 1536.10276024942 409.05062465276603L1536.10276024942 409.05062465276603Q1536.10276024942 408.0914511041334 1535.7584415396545 406.886335619954Q1535.414122829889 405.6566259422199 1534.5041376683657 404.62366981292325Q1533.5941525068424 403.5907136836266 1531.9463415386786 402.85288787698613Q1530.2985305705151 402.1150620703457 1527.6177634730548 402.1150620703457Z " fill="#dfd0b8" transform="matrix(0.5595447506023257,0,0,0.5595447506023257,0,69.30821303993298)"/></g></svg>